The Reunion (2011) 1080p MKV X264 AC3+DTS MultiSubs
.
[IMG]http://img687.imageshack.us/img687/3156/tr2011.jpg[/IMG]
.
Verenigde Staten
Actie
96 minuten

geregisseerd door Michael Pavone
met John Cena, Ethan Embry en Boyd Holbrook

Na de dood van haar vader wordt de dochter belast met de vervulling van haar vaders laatste wens om zijn drie zonen weer bij elkaar te brengen: Sam, een geharde politieagent die momenteel geschorst is, Leo, een brutale borgtochtgeldschieter en Douglas, een knappe 20-jarige dief die net vrij is uit de gevangenis. Wanneer Leo erachter komt dat een gevangene waar hij veel geld aan uitgeleend heeft, wordt verdacht van het ontvoeren van ÚÚn van de rijkste mensen van het land, overtuigt hij zijn twee broers ervan hem te vergezellen op een gevaarlijk en spannend avontuur.
. 
http://www.moviemeter.nl/film/79863
.
PLOT
.
Sam and Leo Cleary have grown up hating each other, and neither likes their juvenile delinquent kid brother...
. 
http://www.imdb.com/title/tt1792543/
.
INFO
.
Source: CHD
.
Format                           : AVC
Format/Info                      : Advanced Video Codec
Format profile                   : High@L4.1
Format settings, CABAC           : Yes
Format settings, ReFrames        : 4 frames
Muxing mode                      : Container profile=Unknown@4.1
Codec ID                         : V_MPEG4/ISO/AVC
Duration                         : 1h 36mn
Bit rate                         : 10.3 Mbps
Width                            : 1 920 pixels
Height                           : 1 032 pixels
Display aspect ratio             : 1.860
Frame rate                       : 23.976 fps
Color space                      : YUV
Chroma subsampling               : 4:2:0
Bit depth                        : 8 bits
Scan type                        : Progressive
Bits/(Pixel*Frame)               : 0.217
Stream size                      : 6.75 GiB (81%)
Writing library                  : x264 core 115 r2008 4c552d8
Encoding settings                : cabac=1 / ref=4 / deblock=1:-3:-3 / analyse=0x3:0x113 / me=umh / subme=10 / psy=1 / psy_rd=1.10:0.15 / mixed_ref=1 / me_range=32 / chroma_me=1 / trellis=2 / 8x8dct=1 / cqm=2 / deadzone=21,11 / fast_pskip=0 / chroma_qp_offset=-2 / threads=12 / sliced_threads=0 / nr=0 / decimate=1 / interlaced=0 / bluray_compat=0 / constrained_intra=0 / bframes=6 / b_pyramid=2 / b_adapt=2 / b_bias=0 / direct=3 / weightb=1 / open_gop=0 / weightp=2 / keyint=250 / keyint_min=23 / scenecut=40 / intra_refresh=0 / rc_lookahead=60 / rc=2pass / mbtree=1 / bitrate=10298 / ratetol=1.0 / qcomp=0.60 / qpmin=1 / qpmax=63 / qpstep=4 / cplxblur=20.0 / qblur=0.5 / vbv_maxrate=40000 / vbv_bufsize=30000 / nal_hrd=none / ip_ratio=1.40 / aq=1:0.80
Language                         : English

Audio #1
ID                               : 2
Format                           : DTS
Format/Info                      : Digital Theater Systems
Codec ID                         : A_DTS
Duration                         : 1h 36mn
Bit rate mode                    : Constant
Bit rate                         : 1 510 Kbps
Channel(s)                       : 6 channels
Channel positions                : Front: L C R, Side: L R, LFE
Sampling rate                    : 48.0 KHz
Bit depth                        : 24 bits
Stream size                      : 1.01 GiB (12%)
Title                            : DTS
Language                         : English

Audio #2
ID                               : 3
Format                           : AC-3
Format/Info                      : Audio Coding 3
Mode extension                   : CM (complete main)
Codec ID                         : A_AC3
Duration                         : 1h 36mn
Bit rate mode                    : Constant
Bit rate                         : 640 Kbps
Channel(s)                       : 6 channels
Channel positions                : Front: L C R, Side: L R, LFE
Sampling rate                    : 48.0 KHz
Bit depth                        : 16 bits
Stream size                      : 440 MiB (5%)
Title                            : AC3
Language                         : English

Text #1
ID                               : 4
Format                           : UTF-8
Codec ID                         : S_TEXT/UTF8
Codec ID/Info                    : UTF-8 Plain Text
Title                            : Spanish
Language                         : Spanish

Text #2
ID                               : 5
Format                           : UTF-8
Codec ID                         : S_TEXT/UTF8
Codec ID/Info                    : UTF-8 Plain Text
Title                            : Romanian
Language                         : Romanian

Text #3
ID                               : 6
Format                           : UTF-8
Codec ID                         : S_TEXT/UTF8
Codec ID/Info                    : UTF-8 Plain Text
Title                            : Portuguese
Language                         : Portuguese

Text #4
ID                               : 7
Format                           : UTF-8
Codec ID                         : S_TEXT/UTF8
Codec ID/Info                    : UTF-8 Plain Text
Title                            : English
Language                         : English

Text #5
ID                               : 8
Format                           : UTF-8
Codec ID                         : S_TEXT/UTF8
Codec ID/Info                    : UTF-8 Plain Text
Title                            : Nederlands
Language                         : Dutch

Enjoy
